<mxfile host="app.diagrams.net" modified="2023-03-25T04:35:03.382Z" agent="Mozilla/5.0 (Macintosh; Intel Mac OS X 10_15_7) AppleWebKit/605.1.15 (KHTML, like Gecko) Version/15.6 Safari/605.1.15" version="21.1.1" etag="ri02Zn_vMJy-NLZDsKQ8" type="github">
  <diagram name="Page-1" id="1yYphyVsfSTjHDknyFJ_">
    <mxGraphModel>
      <root>
        <mxCell id="0" />
        <mxCell id="1" parent="0" />
      </root>
    </mxGraphModel>
  </diagram>
</mxfile>
